# xmcd
#
# Track frame offsets:
#	182
#	11950
#	22847
#	39565
#	50767
#	60462
#	72437
#	84432
#	95707
#	113792
#	123825
#	134025
#	145345
#	161282
#	174042
#	187395
#	198297
#	209612
#	228357
#	242090
#	252152
#	269447
#
# Disc length: 3838 seconds
#
# Revision: 0
# Processed by: cddbd v1.5.2PL0 Copyright (c) Steve Scherf et al.
# Submitted via: audiograbber 1.83.01
#
DISCID=400efc16
DTITLE=Johnny Cash - Reader's Digest Country Classics CD2
DYEAR=1999
DGENRE=Country
TTITLE0=A Thing Called Love (1972)
TTITLE1=Daddy Sang Bass (1972)
TTITLE2=The Streets of Laredo (1965)
TTITLE3=He'll Understand And Say Well Done (1961)
TTITLE4=Amen (1965)
TTITLE5=Gospel Boogie (1979)
TTITLE6=What is Truth (1970)
TTITLE7=Amazing Grace (1971)
TTITLE8=Jesus Was A Carpenter (1973)
TTITLE9=Shepherd Of My Heart (1958)
TTITLE10=All Of God's Children Ain't Free (1965)
TTITLE11=If I Had A Hammer (1973)
TTITLE12=This Train Is Bound For Glory (1979)
TTITLE13=Remember the Alamo (1972)
TTITLE14=The Shifting Whispering Sands (1965)
TTITLE15=Old Shep (1974)
TTITLE16=Bury Me Not On The Lone Prairie (1965)
TTITLE17=The Ballad of Ira Hayes (1967)
TTITLE18=If We Never Meet Again (1961)
TTITLE19=Peace In The Valley (1962)
TTITLE20=These Hands (1970)
TTITLE21=Sunday Morning Coming Down (1970)
EXTD=Track dates supplied.
EXTT0=
EXTT1=
EXTT2=
EXTT3=
EXTT4=
EXTT5=
EXTT6=
EXTT7=
EXTT8=
EXTT9=
EXTT10=
EXTT11=
EXTT12=
EXTT13=
EXTT14=
EXTT15=
EXTT16=
EXTT17=
EXTT18=
EXTT19=
EXTT20=
EXTT21=
PLAYORDER=
